;PTH Drill file created by EasyEDA 
M48
;Holesize 1 = 0.040 INCH
T01C0.040
;Holesize 2 = 0.036 INCH
T02C0.036
;Holesize 3 = 0.012 INCH
T03C0.012
INCH,00.0000
%
G05
G90
T01
X004600Y021800
X004600Y022800
X004600Y023800
X004600Y024800
X004600Y025800
X004600Y026800
X004600Y027800
X004600Y028800
X004600Y029800
X004600Y030800
X004600Y031800
X004600Y032800
X010600Y032800
X010600Y031800
X010600Y030800
X010600Y029800
X010600Y028800
X010600Y027800
X010600Y026800
X010600Y025800
X010600Y024800
X010600Y023800
X010600Y022800
X010600Y021800
T02
X001500Y028000
X001500Y027000
X001500Y026000
X001500Y025000
X001500Y033900
X001500Y032900
X001500Y031900
X001500Y030900
X001500Y022100
X001500Y021100
X001500Y020100
X001500Y019100
X019100Y033900
X019100Y032900
X019100Y031900
X019100Y030900
X019100Y022100
X019100Y021100
X019100Y020100
X019100Y019100
T03
X015340Y032546
X007928Y027455
X012714Y032471
X012459Y033036
X012326Y033542
X013626Y030748
X013972Y024146
X013972Y023253
X011138Y033840
X014267Y025107
X013952Y024463
X013043Y031700
X007472Y024307
X012990Y024550
X013380Y031521
X012632Y029703
X012632Y022998
X013585Y023271
X011347Y022188
X011185Y025048
X011642Y027928
M30
