G04 ---------------------------- Layer name :BOTTOM LAYER*
G04 easyEDA 0.1*
G04 Scale: 100 percent, Rotated: No, Reflected: No *
G04 Dimensions in inches *
G04 leading zeros omitted , absolute positions ,2 integer and 4 * 
%FSLAX24Y24*%
%MOIN*%
G90*
G70D02*

%ADD11C,0.008000*%
%ADD12C,0.020000*%
%ADD13C,0.024000*%
%ADD14R,0.039400X0.051200*%
%ADD15R,0.051200X0.039400*%
%ADD16C,0.074000*%
%ADD18C,0.060000*%

%LPD*%
%LNCopperArea outer*%
G36*
G01X100Y17800D02*
G01X100Y35300D01*
G01X20400Y35300D01*
G01X20400Y17800D01*
G01X100Y17800D01*
G37*

%LPC*%
%LNCopper Hole*%
G36*
G01X1132Y34050D02*
G01X1350Y34050D01*
G01X1350Y34265D01*
G01X1300Y34246D01*
G01X1205Y34171D01*
G01X1140Y34073D01*
G01X1132Y34050D01*
G37*
G36*
G01X1650Y34050D02*
G01X1865Y34050D01*
G01X1830Y34126D01*
G01X1750Y34211D01*
G01X1650Y34269D01*
G01X1650Y34050D01*
G37*
G36*
G01X18731Y34050D02*
G01X18950Y34050D01*
G01X18950Y34265D01*
G01X18900Y34246D01*
G01X18806Y34171D01*
G01X18739Y34073D01*
G01X18731Y34050D01*
G37*
G36*
G01X1350Y33534D02*
G01X1350Y33750D01*
G01X1132Y33750D01*
G01X1140Y33726D01*
G01X1205Y33628D01*
G01X1300Y33554D01*
G01X1350Y33534D01*
G37*
G36*
G01X18950Y33534D02*
G01X18950Y33750D01*
G01X18731Y33750D01*
G01X18739Y33726D01*
G01X18806Y33628D01*
G01X18900Y33554D01*
G01X18950Y33534D01*
G37*
G36*
G01X1650Y33530D02*
G01X1750Y33588D01*
G01X1830Y33673D01*
G01X1865Y33750D01*
G01X1650Y33750D01*
G01X1650Y33530D01*
G37*
G36*
G01X1530Y32502D02*
G01X1646Y32528D01*
G01X1750Y32588D01*
G01X1830Y32673D01*
G01X1882Y32782D01*
G01X1900Y32900D01*
G01X1882Y33017D01*
G01X1830Y33126D01*
G01X1750Y33211D01*
G01X1646Y33271D01*
G01X1530Y33298D01*
G01X1409Y33290D01*
G01X1300Y33246D01*
G01X1205Y33171D01*
G01X1140Y33073D01*
G01X1103Y32959D01*
G01X1103Y32840D01*
G01X1140Y32726D01*
G01X1205Y32628D01*
G01X1300Y32553D01*
G01X1409Y32509D01*
G01X1530Y32502D01*
G37*
G36*
G01X1530Y31502D02*
G01X1646Y31528D01*
G01X1750Y31588D01*
G01X1830Y31673D01*
G01X1882Y31782D01*
G01X1900Y31900D01*
G01X1882Y32017D01*
G01X1830Y32126D01*
G01X1750Y32211D01*
G01X1646Y32271D01*
G01X1530Y32298D01*
G01X1409Y32290D01*
G01X1300Y32246D01*
G01X1205Y32171D01*
G01X1140Y32073D01*
G01X1103Y31959D01*
G01X1103Y31840D01*
G01X1140Y31726D01*
G01X1205Y31628D01*
G01X1300Y31553D01*
G01X1409Y31509D01*
G01X1530Y31502D01*
G37*
G36*
G01X10415Y31371D02*
G01X10415Y31615D01*
G01X10165Y31615D01*
G01X10168Y31611D01*
G01X10235Y31503D01*
G01X10327Y31415D01*
G01X10415Y31371D01*
G37*
G36*
G01X10784Y31369D02*
G01X10815Y31382D01*
G01X10919Y31455D01*
G01X11002Y31555D01*
G01X11027Y31615D01*
G01X10784Y31615D01*
G01X10784Y31369D01*
G37*
G36*
G01X4165Y30984D02*
G01X4415Y30984D01*
G01X4415Y31228D01*
G01X4328Y31184D01*
G01X4236Y31096D01*
G01X4167Y30988D01*
G01X4165Y30984D01*
G37*
G36*
G01X4784Y30984D02*
G01X5027Y30984D01*
G01X5002Y31044D01*
G01X4919Y31144D01*
G01X4815Y31217D01*
G01X4784Y31230D01*
G01X4784Y30984D01*
G37*
G36*
G01X4415Y30371D02*
G01X4415Y30615D01*
G01X4165Y30615D01*
G01X4167Y30611D01*
G01X4236Y30503D01*
G01X4328Y30415D01*
G01X4415Y30371D01*
G37*
G36*
G01X4784Y30369D02*
G01X4815Y30382D01*
G01X4919Y30455D01*
G01X5002Y30555D01*
G01X5027Y30615D01*
G01X4784Y30615D01*
G01X4784Y30369D01*
G37*
G36*
G01X10568Y30332D02*
G01X10696Y30340D01*
G01X10815Y30382D01*
G01X10919Y30455D01*
G01X11002Y30555D01*
G01X11052Y30673D01*
G01X11069Y30800D01*
G01X11052Y30926D01*
G01X11002Y31044D01*
G01X10919Y31144D01*
G01X10815Y31217D01*
G01X10696Y31259D01*
G01X10568Y31267D01*
G01X10442Y31242D01*
G01X10327Y31184D01*
G01X10235Y31096D01*
G01X10168Y30988D01*
G01X10134Y30863D01*
G01X10134Y30736D01*
G01X10168Y30611D01*
G01X10235Y30503D01*
G01X10327Y30415D01*
G01X10442Y30357D01*
G01X10568Y30332D01*
G37*
G36*
G01X4165Y29984D02*
G01X4415Y29984D01*
G01X4415Y30228D01*
G01X4328Y30184D01*
G01X4236Y30096D01*
G01X4167Y29988D01*
G01X4165Y29984D01*
G37*
G36*
G01X1650Y21730D02*
G01X1750Y21788D01*
G01X1830Y21873D01*
G01X1865Y21950D01*
G01X1650Y21950D01*
G01X1650Y21730D01*
G37*
G36*
G01X18950Y21734D02*
G01X18950Y21950D01*
G01X18731Y21950D01*
G01X18739Y21926D01*
G01X18806Y21828D01*
G01X18900Y21753D01*
G01X18950Y21734D01*
G37*
G36*
G01X4784Y29984D02*
G01X5027Y29984D01*
G01X5002Y30044D01*
G01X4919Y30144D01*
G01X4815Y30217D01*
G01X4784Y30230D01*
G01X4784Y29984D01*
G37*
G36*
G01X4415Y29371D02*
G01X4415Y29615D01*
G01X4165Y29615D01*
G01X4167Y29611D01*
G01X4236Y29503D01*
G01X4328Y29415D01*
G01X4415Y29371D01*
G37*
G36*
G01X4784Y29369D02*
G01X4815Y29382D01*
G01X4919Y29455D01*
G01X5002Y29555D01*
G01X5027Y29615D01*
G01X4784Y29615D01*
G01X4784Y29369D01*
G37*
G36*
G01X12727Y22044D02*
G01X12826Y22044D01*
G01X12856Y22048D01*
G01X12884Y22063D01*
G01X12906Y22086D01*
G01X12922Y22113D01*
G01X12923Y22130D01*
G01X12926Y22113D01*
G01X12942Y22086D01*
G01X12964Y22063D01*
G01X12992Y22048D01*
G01X13022Y22044D01*
G01X13415Y22044D01*
G01X13446Y22048D01*
G01X13473Y22063D01*
G01X13496Y22086D01*
G01X13511Y22113D01*
G01X13514Y22130D01*
G01X13515Y22113D01*
G01X13531Y22086D01*
G01X13553Y22063D01*
G01X13581Y22048D01*
G01X13611Y22044D01*
G01X14006Y22044D01*
G01X14035Y22048D01*
G01X14064Y22063D01*
G01X14085Y22086D01*
G01X14102Y22113D01*
G01X14103Y22130D01*
G01X14106Y22113D01*
G01X14122Y22086D01*
G01X14143Y22063D01*
G01X14172Y22048D01*
G01X14202Y22044D01*
G01X14596Y22044D01*
G01X14626Y22048D01*
G01X14653Y22063D01*
G01X14676Y22086D01*
G01X14692Y22113D01*
G01X14696Y22144D01*
G01X14696Y22655D01*
G01X14692Y22686D01*
G01X14676Y22713D01*
G01X14653Y22736D01*
G01X14626Y22752D01*
G01X14596Y22755D01*
G01X14202Y22755D01*
G01X14172Y22752D01*
G01X14143Y22736D01*
G01X14122Y22713D01*
G01X14106Y22686D01*
G01X14103Y22676D01*
G01X14102Y22686D01*
G01X14085Y22713D01*
G01X14064Y22736D01*
G01X14035Y22752D01*
G01X14006Y22755D01*
G01X13611Y22755D01*
G01X13581Y22752D01*
G01X13553Y22736D01*
G01X13531Y22713D01*
G01X13515Y22686D01*
G01X13514Y22676D01*
G01X13511Y22686D01*
G01X13496Y22713D01*
G01X13473Y22736D01*
G01X13446Y22752D01*
G01X13415Y22755D01*
G01X13022Y22755D01*
G01X12992Y22752D01*
G01X12964Y22736D01*
G01X12942Y22713D01*
G01X12926Y22686D01*
G01X12923Y22676D01*
G01X12922Y22686D01*
G01X12906Y22713D01*
G01X12884Y22736D01*
G01X12856Y22752D01*
G01X12826Y22755D01*
G01X12727Y22755D01*
G01X12727Y22528D01*
G01X12922Y22528D01*
G01X12922Y22271D01*
G01X12727Y22271D01*
G01X12727Y22044D01*
G37*
G36*
G01X12431Y22044D02*
G01X12531Y22044D01*
G01X12531Y22271D01*
G01X12331Y22271D01*
G01X12331Y22144D01*
G01X12335Y22113D01*
G01X12352Y22086D01*
G01X12373Y22063D01*
G01X12402Y22048D01*
G01X12431Y22044D01*
G37*
G36*
G01X1650Y28150D02*
G01X1865Y28150D01*
G01X1830Y28226D01*
G01X1750Y28311D01*
G01X1650Y28369D01*
G01X1650Y28150D01*
G37*
G36*
G01X1650Y27630D02*
G01X1750Y27688D01*
G01X1830Y27773D01*
G01X1865Y27850D01*
G01X1650Y27850D01*
G01X1650Y27630D01*
G37*
G36*
G01X1530Y18702D02*
G01X1646Y18728D01*
G01X1750Y18788D01*
G01X1830Y18873D01*
G01X1882Y18982D01*
G01X1900Y19100D01*
G01X1882Y19217D01*
G01X1830Y19326D01*
G01X1750Y19411D01*
G01X1646Y19471D01*
G01X1530Y19498D01*
G01X1409Y19490D01*
G01X1398Y19486D01*
G01X1203Y19680D01*
G01X1203Y19830D01*
G01X1205Y19828D01*
G01X1300Y19753D01*
G01X1409Y19709D01*
G01X1530Y19702D01*
G01X1646Y19728D01*
G01X1750Y19788D01*
G01X1830Y19873D01*
G01X1882Y19982D01*
G01X1900Y20100D01*
G01X1882Y20217D01*
G01X1830Y20326D01*
G01X1750Y20411D01*
G01X1646Y20471D01*
G01X1530Y20498D01*
G01X1409Y20490D01*
G01X1300Y20446D01*
G01X1205Y20371D01*
G01X1203Y20369D01*
G01X1203Y20830D01*
G01X1205Y20828D01*
G01X1300Y20753D01*
G01X1409Y20709D01*
G01X1530Y20702D01*
G01X1646Y20728D01*
G01X1750Y20788D01*
G01X1830Y20873D01*
G01X1842Y20900D01*
G01X10668Y20900D01*
G01X10700Y20902D01*
G01X10730Y20909D01*
G01X10757Y20921D01*
G01X10785Y20938D01*
G01X10810Y20957D01*
G01X11784Y21932D01*
G01X11803Y21955D01*
G01X11819Y21984D01*
G01X11831Y22011D01*
G01X11839Y22042D01*
G01X11842Y22073D01*
G01X11842Y22823D01*
G01X11853Y22817D01*
G01X11884Y22813D01*
G01X12010Y22813D01*
G01X12010Y23011D01*
G01X11842Y23011D01*
G01X11842Y23207D01*
G01X12010Y23207D01*
G01X12010Y23403D01*
G01X12265Y23403D01*
G01X12265Y23207D01*
G01X12431Y23207D01*
G01X12431Y23080D01*
G01X12415Y23044D01*
G01X12415Y23011D01*
G01X12265Y23011D01*
G01X12265Y22813D01*
G01X12396Y22813D01*
G01X12426Y22817D01*
G01X12453Y22834D01*
G01X12472Y22852D01*
G01X12522Y22807D01*
G01X12610Y22780D01*
G01X12700Y22788D01*
G01X12780Y22834D01*
G01X12831Y22907D01*
G01X12852Y22998D01*
G01X12831Y23088D01*
G01X12831Y24402D01*
G01X12880Y24359D01*
G01X12968Y24332D01*
G01X13057Y24340D01*
G01X13138Y24386D01*
G01X13189Y24459D01*
G01X13210Y24550D01*
G01X13189Y24640D01*
G01X13138Y24713D01*
G01X13130Y24717D01*
G01X13130Y29686D01*
G01X13127Y29707D01*
G01X13123Y29730D01*
G01X13114Y29750D01*
G01X13103Y29767D01*
G01X13089Y29784D01*
G01X12823Y30050D01*
G01X13492Y30717D01*
G01X13502Y30736D01*
G01X13511Y30755D01*
G01X13515Y30778D01*
G01X13518Y30800D01*
G01X13518Y31352D01*
G01X13527Y31357D01*
G01X13580Y31432D01*
G01X13600Y31521D01*
G01X13580Y31611D01*
G01X13527Y31686D01*
G01X13447Y31732D01*
G01X13357Y31740D01*
G01X13269Y31711D01*
G01X13261Y31703D01*
G01X13242Y31790D01*
G01X13189Y31863D01*
G01X13110Y31909D01*
G01X13019Y31917D01*
G01X12931Y31890D01*
G01X12864Y31830D01*
G01X12826Y31746D01*
G01X12826Y31680D01*
G01X11085Y29940D01*
G01X11046Y29940D01*
G01X11002Y30044D01*
G01X10919Y30144D01*
G01X10815Y30217D01*
G01X10696Y30259D01*
G01X10568Y30267D01*
G01X10442Y30242D01*
G01X10327Y30184D01*
G01X10235Y30096D01*
G01X10168Y29988D01*
G01X10134Y29863D01*
G01X10134Y29736D01*
G01X10168Y29611D01*
G01X10185Y29584D01*
G01X8131Y27530D01*
G01X8127Y27546D01*
G01X8076Y27619D01*
G01X7996Y27665D01*
G01X7906Y27673D01*
G01X7818Y27646D01*
G01X7750Y27586D01*
G01X7711Y27502D01*
G01X7711Y27438D01*
G01X5257Y24986D01*
G01X5257Y26959D01*
G01X10284Y31984D01*
G01X10415Y31984D01*
G01X10415Y32115D01*
G01X10460Y32159D01*
G01X10784Y32159D01*
G01X10784Y31984D01*
G01X11027Y31984D01*
G01X11002Y32044D01*
G01X10919Y32144D01*
G01X10897Y32159D01*
G01X11688Y32159D01*
G01X11714Y32134D01*
G01X11731Y32119D01*
G01X11750Y32107D01*
G01X11769Y32100D01*
G01X11789Y32096D01*
G01X11811Y32094D01*
G01X15026Y32094D01*
G01X15047Y32096D01*
G01X15069Y32100D01*
G01X15089Y32109D01*
G01X15107Y32119D01*
G01X15315Y32328D01*
G01X15318Y32328D01*
G01X15407Y32336D01*
G01X15488Y32382D01*
G01X15539Y32455D01*
G01X15560Y32546D01*
G01X15539Y32636D01*
G01X15488Y32709D01*
G01X15407Y32755D01*
G01X15318Y32763D01*
G01X15230Y32736D01*
G01X15161Y32676D01*
G01X15123Y32592D01*
G01X15123Y32528D01*
G01X14969Y32373D01*
G01X12907Y32373D01*
G01X12914Y32382D01*
G01X12934Y32471D01*
G01X12914Y32561D01*
G01X12861Y32636D01*
G01X12781Y32682D01*
G01X12692Y32690D01*
G01X12680Y32686D01*
G01X12534Y32832D01*
G01X12606Y32871D01*
G01X12657Y32946D01*
G01X12677Y33036D01*
G01X12657Y33126D01*
G01X12606Y33200D01*
G01X12526Y33246D01*
G01X12492Y33248D01*
G01X12402Y33340D01*
G01X12473Y33380D01*
G01X12526Y33454D01*
G01X12546Y33544D01*
G01X12526Y33634D01*
G01X12473Y33707D01*
G01X12393Y33754D01*
G01X12306Y33761D01*
G01X11603Y34461D01*
G01X18938Y34461D01*
G01X19250Y34150D01*
G01X19250Y34050D01*
G01X19350Y34050D01*
G01X19369Y34030D01*
G01X19369Y33750D01*
G01X19250Y33750D01*
G01X19250Y33530D01*
G01X19350Y33588D01*
G01X19369Y33609D01*
G01X19369Y33190D01*
G01X19350Y33211D01*
G01X19246Y33271D01*
G01X19130Y33298D01*
G01X19010Y33290D01*
G01X18900Y33246D01*
G01X18806Y33171D01*
G01X18739Y33073D01*
G01X18703Y32959D01*
G01X18703Y32840D01*
G01X18715Y32800D01*
G01X13442Y27528D01*
G01X13422Y27503D01*
G01X13406Y27476D01*
G01X13393Y27448D01*
G01X13385Y27417D01*
G01X13384Y27386D01*
G01X13384Y23353D01*
G01X13368Y23317D01*
G01X13368Y23226D01*
G01X13406Y23142D01*
G01X13473Y23082D01*
G01X13561Y23053D01*
G01X13652Y23061D01*
G01X13731Y23107D01*
G01X13784Y23182D01*
G01X13803Y23271D01*
G01X13784Y23361D01*
G01X13784Y24326D01*
G01X13842Y24273D01*
G01X13930Y24246D01*
G01X14019Y24253D01*
G01X14100Y24300D01*
G01X14115Y24323D01*
G01X14210Y24323D01*
G01X14947Y23586D01*
G01X14965Y23576D01*
G01X14985Y23565D01*
G01X15007Y23561D01*
G01X15030Y23559D01*
G01X16903Y23559D01*
G01X16903Y23503D01*
G01X16907Y23473D01*
G01X16923Y23446D01*
G01X16946Y23423D01*
G01X16973Y23407D01*
G01X16989Y23405D01*
G01X16973Y23403D01*
G01X16946Y23388D01*
G01X16923Y23365D01*
G01X16907Y23338D01*
G01X16903Y23307D01*
G01X16903Y23207D01*
G01X17131Y23207D01*
G01X17131Y23403D01*
G01X17388Y23403D01*
G01X17388Y23207D01*
G01X17615Y23207D01*
G01X17615Y23307D01*
G01X17611Y23338D01*
G01X17596Y23365D01*
G01X17573Y23388D01*
G01X17546Y23403D01*
G01X17531Y23405D01*
G01X17546Y23407D01*
G01X17573Y23423D01*
G01X17596Y23446D01*
G01X17611Y23473D01*
G01X17615Y23503D01*
G01X17615Y23898D01*
G01X17611Y23928D01*
G01X17596Y23955D01*
G01X17573Y23978D01*
G01X17546Y23994D01*
G01X17531Y23996D01*
G01X17546Y23998D01*
G01X17573Y24013D01*
G01X17596Y24036D01*
G01X17611Y24063D01*
G01X17615Y24094D01*
G01X17615Y24488D01*
G01X17611Y24517D01*
G01X17596Y24546D01*
G01X17573Y24567D01*
G01X17546Y24584D01*
G01X17531Y24586D01*
G01X17546Y24588D01*
G01X17573Y24603D01*
G01X17596Y24626D01*
G01X17611Y24653D01*
G01X17615Y24684D01*
G01X17615Y25078D01*
G01X17611Y25107D01*
G01X17596Y25136D01*
G01X17573Y25157D01*
G01X17546Y25173D01*
G01X17531Y25176D01*
G01X17546Y25178D01*
G01X17573Y25194D01*
G01X17596Y25215D01*
G01X17611Y25244D01*
G01X17615Y25273D01*
G01X17615Y25667D01*
G01X17611Y25698D01*
G01X17596Y25726D01*
G01X17573Y25748D01*
G01X17546Y25763D01*
G01X17531Y25765D01*
G01X17546Y25767D01*
G01X17573Y25784D01*
G01X17596Y25805D01*
G01X17611Y25834D01*
G01X17615Y25863D01*
G01X17615Y26257D01*
G01X17611Y26288D01*
G01X17596Y26315D01*
G01X17573Y26338D01*
G01X17546Y26353D01*
G01X17531Y26355D01*
G01X17546Y26357D01*
G01X17573Y26373D01*
G01X17596Y26396D01*
G01X17611Y26423D01*
G01X17615Y26453D01*
G01X17615Y26848D01*
G01X17611Y26878D01*
G01X17596Y26905D01*
G01X17573Y26928D01*
G01X17546Y26944D01*
G01X17531Y26946D01*
G01X17546Y26948D01*
G01X17573Y26963D01*
G01X17596Y26986D01*
G01X17611Y27013D01*
G01X17615Y27044D01*
G01X17615Y27438D01*
G01X17611Y27467D01*
G01X17596Y27496D01*
G01X17573Y27517D01*
G01X17546Y27534D01*
G01X17531Y27536D01*
G01X17546Y27538D01*
G01X17573Y27553D01*
G01X17596Y27576D01*
G01X17611Y27603D01*
G01X17615Y27634D01*
G01X17615Y28028D01*
G01X17611Y28057D01*
G01X17596Y28086D01*
G01X17573Y28107D01*
G01X17546Y28123D01*
G01X17531Y28126D01*
G01X17546Y28128D01*
G01X17573Y28144D01*
G01X17596Y28165D01*
G01X17611Y28194D01*
G01X17615Y28223D01*
G01X17615Y28617D01*
G01X17611Y28648D01*
G01X17596Y28676D01*
G01X17573Y28698D01*
G01X17546Y28713D01*
G01X17531Y28715D01*
G01X17546Y28717D01*
G01X17573Y28734D01*
G01X17596Y28755D01*
G01X17611Y28784D01*
G01X17615Y28813D01*
G01X17615Y29207D01*
G01X17611Y29238D01*
G01X17596Y29265D01*
G01X17573Y29288D01*
G01X17546Y29303D01*
G01X17531Y29305D01*
G01X17546Y29307D01*
G01X17573Y29323D01*
G01X17596Y29346D01*
G01X17611Y29373D01*
G01X17615Y29403D01*
G01X17615Y29771D01*
G01X17619Y29773D01*
G01X17638Y29784D01*
G01X18664Y30809D01*
G01X18673Y30828D01*
G01X18684Y30848D01*
G01X18688Y30869D01*
G01X18689Y30892D01*
G01X18689Y30961D01*
G01X18711Y30984D01*
G01X18703Y30959D01*
G01X18703Y30840D01*
G01X18739Y30726D01*
G01X18806Y30628D01*
G01X18900Y30553D01*
G01X19010Y30509D01*
G01X19130Y30502D01*
G01X19197Y30517D01*
G01X19369Y30346D01*
G01X19369Y22390D01*
G01X19350Y22411D01*
G01X19250Y22469D01*
G01X19250Y22250D01*
G01X19369Y22250D01*
G01X19369Y21950D01*
G01X19250Y21950D01*
G01X19250Y21730D01*
G01X19350Y21788D01*
G01X19369Y21809D01*
G01X19369Y21390D01*
G01X19350Y21411D01*
G01X19246Y21471D01*
G01X19130Y21498D01*
G01X19010Y21490D01*
G01X18900Y21446D01*
G01X18806Y21371D01*
G01X18739Y21273D01*
G01X18703Y21159D01*
G01X18703Y21040D01*
G01X18739Y20926D01*
G01X18806Y20828D01*
G01X18900Y20753D01*
G01X19010Y20709D01*
G01X19130Y20702D01*
G01X19246Y20728D01*
G01X19350Y20788D01*
G01X19369Y20809D01*
G01X19369Y20390D01*
G01X19350Y20411D01*
G01X19246Y20471D01*
G01X19130Y20498D01*
G01X19010Y20490D01*
G01X18900Y20446D01*
G01X18806Y20371D01*
G01X18739Y20273D01*
G01X18703Y20159D01*
G01X18703Y20040D01*
G01X18739Y19926D01*
G01X18806Y19828D01*
G01X18900Y19753D01*
G01X19010Y19709D01*
G01X19130Y19702D01*
G01X19246Y19728D01*
G01X19350Y19788D01*
G01X19369Y19809D01*
G01X19369Y19655D01*
G01X19197Y19482D01*
G01X19130Y19498D01*
G01X19010Y19490D01*
G01X18900Y19446D01*
G01X18806Y19371D01*
G01X18739Y19273D01*
G01X18703Y19159D01*
G01X18703Y19040D01*
G01X18739Y18926D01*
G01X18806Y18828D01*
G01X18900Y18753D01*
G01X19010Y18709D01*
G01X19130Y18702D01*
G01X19246Y18728D01*
G01X19350Y18788D01*
G01X19430Y18873D01*
G01X19481Y18982D01*
G01X19500Y19100D01*
G01X19484Y19202D01*
G01X19711Y19430D01*
G01X19731Y19453D01*
G01X19747Y19482D01*
G01X19760Y19509D01*
G01X19768Y19540D01*
G01X19769Y19571D01*
G01X19769Y30430D01*
G01X19768Y30461D01*
G01X19760Y30492D01*
G01X19747Y30519D01*
G01X19731Y30548D01*
G01X19711Y30571D01*
G01X19484Y30800D01*
G01X19500Y30900D01*
G01X19481Y31017D01*
G01X19430Y31126D01*
G01X19350Y31211D01*
G01X19257Y31263D01*
G01X19264Y31265D01*
G01X19284Y31276D01*
G01X19302Y31286D01*
G01X19773Y31757D01*
G01X19784Y31776D01*
G01X19793Y31796D01*
G01X19797Y31817D01*
G01X19800Y31840D01*
G01X19800Y34148D01*
G01X19797Y34169D01*
G01X19793Y34192D01*
G01X19784Y34211D01*
G01X19773Y34230D01*
G01X19064Y34940D01*
G01X19046Y34950D01*
G01X19026Y34959D01*
G01X19003Y34963D01*
G01X18981Y34965D01*
G01X6623Y34965D01*
G01X6602Y34963D01*
G01X6580Y34959D01*
G01X6560Y34950D01*
G01X6542Y34940D01*
G01X6523Y34923D01*
G01X4818Y33215D01*
G01X4815Y33217D01*
G01X4696Y33259D01*
G01X4567Y33267D01*
G01X4442Y33242D01*
G01X4328Y33184D01*
G01X4236Y33096D01*
G01X4167Y32988D01*
G01X4134Y32863D01*
G01X4134Y32736D01*
G01X4167Y32611D01*
G01X4236Y32503D01*
G01X4328Y32415D01*
G01X4442Y32357D01*
G01X4567Y32332D01*
G01X4696Y32340D01*
G01X4815Y32382D01*
G01X4919Y32455D01*
G01X5002Y32555D01*
G01X5052Y32673D01*
G01X5069Y32800D01*
G01X5052Y32926D01*
G01X5014Y33015D01*
G01X6681Y34686D01*
G01X7285Y34686D01*
G01X4818Y32215D01*
G01X4815Y32217D01*
G01X4696Y32259D01*
G01X4567Y32267D01*
G01X4442Y32242D01*
G01X4328Y32184D01*
G01X4236Y32096D01*
G01X4167Y31988D01*
G01X4134Y31863D01*
G01X4134Y31736D01*
G01X4167Y31611D01*
G01X4236Y31503D01*
G01X4328Y31415D01*
G01X4442Y31357D01*
G01X4567Y31332D01*
G01X4696Y31340D01*
G01X4815Y31382D01*
G01X4919Y31455D01*
G01X5002Y31555D01*
G01X5052Y31673D01*
G01X5069Y31800D01*
G01X5052Y31926D01*
G01X5014Y32015D01*
G01X7457Y34461D01*
G01X10065Y34461D01*
G01X4819Y29215D01*
G01X4815Y29217D01*
G01X4696Y29259D01*
G01X4567Y29267D01*
G01X4442Y29242D01*
G01X4328Y29184D01*
G01X4236Y29096D01*
G01X4167Y28988D01*
G01X4134Y28863D01*
G01X4134Y28736D01*
G01X4167Y28611D01*
G01X4236Y28503D01*
G01X4328Y28415D01*
G01X4442Y28357D01*
G01X4567Y28332D01*
G01X4696Y28340D01*
G01X4815Y28382D01*
G01X4919Y28455D01*
G01X5002Y28555D01*
G01X5052Y28673D01*
G01X5069Y28800D01*
G01X5052Y28926D01*
G01X5014Y29017D01*
G01X10306Y34309D01*
G01X10806Y34309D01*
G01X4739Y28244D01*
G01X4696Y28259D01*
G01X4567Y28267D01*
G01X4442Y28242D01*
G01X4328Y28184D01*
G01X4236Y28096D01*
G01X4167Y27988D01*
G01X4134Y27863D01*
G01X4134Y27736D01*
G01X4167Y27611D01*
G01X4236Y27503D01*
G01X4328Y27415D01*
G01X4442Y27357D01*
G01X4567Y27332D01*
G01X4696Y27340D01*
G01X4815Y27382D01*
G01X4919Y27455D01*
G01X5002Y27555D01*
G01X5052Y27673D01*
G01X5069Y27800D01*
G01X5052Y27926D01*
G01X5002Y28044D01*
G01X4969Y28082D01*
G01X7003Y30115D01*
G01X7003Y29403D01*
G01X4818Y27215D01*
G01X4815Y27217D01*
G01X4696Y27259D01*
G01X4567Y27267D01*
G01X4442Y27242D01*
G01X4328Y27184D01*
G01X4236Y27096D01*
G01X4167Y26988D01*
G01X4134Y26863D01*
G01X4134Y26736D01*
G01X4167Y26611D01*
G01X4236Y26503D01*
G01X4328Y26415D01*
G01X4442Y26357D01*
G01X4567Y26332D01*
G01X4696Y26340D01*
G01X4815Y26382D01*
G01X4919Y26455D01*
G01X4977Y26526D01*
G01X4977Y26073D01*
G01X4919Y26144D01*
G01X4815Y26217D01*
G01X4696Y26259D01*
G01X4567Y26267D01*
G01X4442Y26242D01*
G01X4328Y26184D01*
G01X4236Y26096D01*
G01X4167Y25988D01*
G01X4134Y25863D01*
G01X4134Y25736D01*
G01X4167Y25611D01*
G01X4236Y25503D01*
G01X4328Y25415D01*
G01X4442Y25357D01*
G01X4567Y25332D01*
G01X4696Y25340D01*
G01X4815Y25382D01*
G01X4919Y25455D01*
G01X4977Y25526D01*
G01X4977Y25073D01*
G01X4919Y25144D01*
G01X4815Y25217D01*
G01X4696Y25259D01*
G01X4567Y25267D01*
G01X4442Y25242D01*
G01X4328Y25184D01*
G01X4236Y25096D01*
G01X4167Y24988D01*
G01X4134Y24863D01*
G01X4134Y24736D01*
G01X4167Y24611D01*
G01X4236Y24503D01*
G01X4328Y24415D01*
G01X4442Y24357D01*
G01X4567Y24332D01*
G01X4696Y24340D01*
G01X4815Y24382D01*
G01X4919Y24455D01*
G01X4977Y24526D01*
G01X4977Y24073D01*
G01X4919Y24144D01*
G01X4815Y24217D01*
G01X4696Y24259D01*
G01X4567Y24267D01*
G01X4442Y24242D01*
G01X4328Y24184D01*
G01X4236Y24096D01*
G01X4167Y23988D01*
G01X4134Y23863D01*
G01X4134Y23736D01*
G01X4167Y23611D01*
G01X4186Y23584D01*
G01X3982Y23382D01*
G01X3965Y23363D01*
G01X3955Y23346D01*
G01X3946Y23326D01*
G01X3942Y23303D01*
G01X3940Y23282D01*
G01X3940Y22615D01*
G01X3942Y22594D01*
G01X3946Y22571D01*
G01X3955Y22552D01*
G01X3965Y22534D01*
G01X3980Y22517D01*
G01X4294Y22202D01*
G01X4311Y22186D01*
G01X4323Y22180D01*
G01X4236Y22096D01*
G01X4167Y21988D01*
G01X4134Y21863D01*
G01X4134Y21736D01*
G01X4167Y21611D01*
G01X4236Y21503D01*
G01X4328Y21415D01*
G01X4442Y21357D01*
G01X4567Y21332D01*
G01X4696Y21340D01*
G01X4815Y21382D01*
G01X4919Y21455D01*
G01X5002Y21555D01*
G01X5052Y21673D01*
G01X5069Y21800D01*
G01X5052Y21926D01*
G01X5014Y22015D01*
G01X5157Y22161D01*
G01X10306Y22161D01*
G01X10235Y22096D01*
G01X10168Y21988D01*
G01X10134Y21863D01*
G01X10134Y21736D01*
G01X10168Y21611D01*
G01X10235Y21503D01*
G01X10327Y21415D01*
G01X10442Y21357D01*
G01X10568Y21332D01*
G01X10619Y21336D01*
G01X10584Y21300D01*
G01X1842Y21300D01*
G01X1830Y21326D01*
G01X1750Y21411D01*
G01X1646Y21471D01*
G01X1530Y21498D01*
G01X1409Y21490D01*
G01X1300Y21446D01*
G01X1205Y21371D01*
G01X1203Y21369D01*
G01X1203Y21830D01*
G01X1205Y21828D01*
G01X1300Y21753D01*
G01X1350Y21734D01*
G01X1350Y21950D01*
G01X1203Y21950D01*
G01X1203Y22250D01*
G01X1350Y22250D01*
G01X1350Y22465D01*
G01X1300Y22446D01*
G01X1205Y22371D01*
G01X1203Y22369D01*
G01X1203Y24421D01*
G01X1398Y24613D01*
G01X1409Y24609D01*
G01X1530Y24602D01*
G01X1646Y24628D01*
G01X1750Y24688D01*
G01X1830Y24773D01*
G01X1882Y24882D01*
G01X1900Y25000D01*
G01X1882Y25117D01*
G01X1830Y25226D01*
G01X1750Y25311D01*
G01X1646Y25371D01*
G01X1530Y25398D01*
G01X1409Y25390D01*
G01X1398Y25386D01*
G01X1228Y25555D01*
G01X1228Y25709D01*
G01X1300Y25653D01*
G01X1409Y25609D01*
G01X1530Y25602D01*
G01X1646Y25628D01*
G01X1750Y25688D01*
G01X1830Y25773D01*
G01X1882Y25882D01*
G01X1900Y26000D01*
G01X1882Y26117D01*
G01X1830Y26226D01*
G01X1750Y26311D01*
G01X1646Y26371D01*
G01X1530Y26398D01*
G01X1409Y26390D01*
G01X1300Y26346D01*
G01X1228Y26290D01*
G01X1228Y26709D01*
G01X1300Y26653D01*
G01X1409Y26609D01*
G01X1530Y26602D01*
G01X1646Y26628D01*
G01X1750Y26688D01*
G01X1830Y26773D01*
G01X1882Y26882D01*
G01X1900Y27000D01*
G01X1882Y27117D01*
G01X1830Y27226D01*
G01X1750Y27311D01*
G01X1646Y27371D01*
G01X1530Y27398D01*
G01X1409Y27390D01*
G01X1300Y27346D01*
G01X1228Y27290D01*
G01X1228Y27709D01*
G01X1300Y27653D01*
G01X1350Y27634D01*
G01X1350Y27850D01*
G01X1228Y27850D01*
G01X1228Y28150D01*
G01X1350Y28150D01*
G01X1350Y28365D01*
G01X1300Y28346D01*
G01X1228Y28290D01*
G01X1228Y30346D01*
G01X1398Y30513D01*
G01X1409Y30509D01*
G01X1530Y30502D01*
G01X1646Y30528D01*
G01X1750Y30588D01*
G01X1830Y30673D01*
G01X1882Y30782D01*
G01X1900Y30900D01*
G01X1882Y31017D01*
G01X1830Y31126D01*
G01X1750Y31211D01*
G01X1646Y31271D01*
G01X1530Y31298D01*
G01X1409Y31290D01*
G01X1300Y31246D01*
G01X1205Y31171D01*
G01X1140Y31073D01*
G01X1103Y30959D01*
G01X1103Y30840D01*
G01X1115Y30802D01*
G01X886Y30571D01*
G01X865Y30548D01*
G01X850Y30521D01*
G01X838Y30492D01*
G01X830Y30461D01*
G01X828Y30430D01*
G01X828Y25471D01*
G01X830Y25440D01*
G01X838Y25409D01*
G01X850Y25382D01*
G01X865Y25353D01*
G01X886Y25330D01*
G01X1115Y25100D01*
G01X1103Y25059D01*
G01X1103Y24940D01*
G01X1115Y24902D01*
G01X861Y24648D01*
G01X842Y24623D01*
G01X826Y24598D01*
G01X813Y24567D01*
G01X805Y24538D01*
G01X803Y24505D01*
G01X803Y19596D01*
G01X805Y19563D01*
G01X813Y19534D01*
G01X826Y19505D01*
G01X842Y19478D01*
G01X861Y19453D01*
G01X1115Y19200D01*
G01X1103Y19159D01*
G01X1103Y19040D01*
G01X1140Y18926D01*
G01X1205Y18828D01*
G01X1300Y18753D01*
G01X1409Y18709D01*
G01X1530Y18702D01*
G37*
G36*
G01X14802Y22044D02*
G01X15196Y22044D01*
G01X15226Y22048D01*
G01X15253Y22063D01*
G01X15276Y22086D01*
G01X15292Y22113D01*
G01X15293Y22130D01*
G01X15296Y22113D01*
G01X15311Y22086D01*
G01X15334Y22063D01*
G01X15361Y22048D01*
G01X15392Y22044D01*
G01X15785Y22044D01*
G01X15815Y22048D01*
G01X15843Y22063D01*
G01X15865Y22086D01*
G01X15881Y22113D01*
G01X15884Y22130D01*
G01X15885Y22113D01*
G01X15902Y22086D01*
G01X15923Y22063D01*
G01X15952Y22048D01*
G01X15981Y22044D01*
G01X16376Y22044D01*
G01X16406Y22048D01*
G01X16434Y22063D01*
G01X16456Y22086D01*
G01X16472Y22113D01*
G01X16473Y22130D01*
G01X16476Y22113D01*
G01X16492Y22086D01*
G01X16514Y22063D01*
G01X16542Y22048D01*
G01X16572Y22044D01*
G01X16672Y22044D01*
G01X16672Y22271D01*
G01X16476Y22271D01*
G01X16476Y22528D01*
G01X16672Y22528D01*
G01X16672Y22755D01*
G01X16572Y22755D01*
G01X16542Y22752D01*
G01X16514Y22736D01*
G01X16492Y22713D01*
G01X16476Y22686D01*
G01X16473Y22676D01*
G01X16472Y22686D01*
G01X16456Y22713D01*
G01X16434Y22736D01*
G01X16406Y22752D01*
G01X16376Y22755D01*
G01X15981Y22755D01*
G01X15952Y22752D01*
G01X15923Y22736D01*
G01X15902Y22713D01*
G01X15885Y22686D01*
G01X15884Y22676D01*
G01X15881Y22686D01*
G01X15865Y22713D01*
G01X15843Y22736D01*
G01X15815Y22752D01*
G01X15785Y22755D01*
G01X15392Y22755D01*
G01X15361Y22752D01*
G01X15334Y22736D01*
G01X15311Y22713D01*
G01X15296Y22686D01*
G01X15293Y22676D01*
G01X15292Y22686D01*
G01X15276Y22713D01*
G01X15253Y22736D01*
G01X15226Y22752D01*
G01X15196Y22755D01*
G01X14802Y22755D01*
G01X14772Y22752D01*
G01X14743Y22736D01*
G01X14722Y22713D01*
G01X14706Y22686D01*
G01X14702Y22655D01*
G01X14702Y22144D01*
G01X14706Y22113D01*
G01X14722Y22086D01*
G01X14743Y22063D01*
G01X14772Y22048D01*
G01X14802Y22044D01*
G37*
G36*
G01X17003Y22813D02*
G01X17131Y22813D01*
G01X17131Y23011D01*
G01X16903Y23011D01*
G01X16903Y22913D01*
G01X16907Y22884D01*
G01X16923Y22855D01*
G01X16946Y22834D01*
G01X16973Y22817D01*
G01X17003Y22813D01*
G37*
G36*
G01X16868Y22044D02*
G01X16965Y22044D01*
G01X16996Y22048D01*
G01X17023Y22063D01*
G01X17046Y22086D01*
G01X17061Y22113D01*
G01X17065Y22144D01*
G01X17065Y22271D01*
G01X16868Y22271D01*
G01X16868Y22044D01*
G37*
G36*
G01X17388Y22813D02*
G01X17515Y22813D01*
G01X17546Y22817D01*
G01X17573Y22834D01*
G01X17596Y22855D01*
G01X17611Y22884D01*
G01X17615Y22913D01*
G01X17615Y23011D01*
G01X17388Y23011D01*
G01X17388Y22813D01*
G37*
G36*
G01X16868Y22528D02*
G01X17065Y22528D01*
G01X17065Y22655D01*
G01X17061Y22686D01*
G01X17046Y22713D01*
G01X17023Y22736D01*
G01X16996Y22752D01*
G01X16965Y22755D01*
G01X16868Y22755D01*
G01X16868Y22528D01*
G37*
G36*
G01X12331Y22528D02*
G01X12531Y22528D01*
G01X12531Y22755D01*
G01X12431Y22755D01*
G01X12402Y22752D01*
G01X12373Y22736D01*
G01X12352Y22713D01*
G01X12335Y22686D01*
G01X12331Y22655D01*
G01X12331Y22528D01*
G37*
G36*
G01X18731Y22250D02*
G01X18950Y22250D01*
G01X18950Y22465D01*
G01X18900Y22446D01*
G01X18806Y22371D01*
G01X18739Y22273D01*
G01X18731Y22250D01*
G37*
G36*
G01X1650Y22250D02*
G01X1865Y22250D01*
G01X1830Y22326D01*
G01X1750Y22411D01*
G01X1650Y22469D01*
G01X1650Y22250D01*
G37*

%LPD*%
%LNVIA PAD TRACK COPPERAREA*%
G54D11*
G01X7928Y27455D02*
G01X5269Y24796D01*
G01X5269Y22790D01*
G01X4779Y22300D01*
G01X4394Y22300D01*
G01X4080Y22614D01*
G01X4080Y23280D01*
G01X4600Y23800D01*
G01X4600Y26800D02*
G01X7144Y29344D01*
G01X7144Y30238D01*
G01X10981Y34075D01*
G01X11255Y34075D01*
G01X12229Y33102D01*
G01X12229Y32940D01*
G01X12697Y32472D01*
G01X12715Y32472D01*
G01X12715Y32471D01*
G01X12459Y33035D02*
G01X12459Y33084D01*
G01X11243Y34299D01*
G01X10993Y34299D01*
G01X4600Y27906D01*
G01X4600Y27800D01*
G01X12326Y33542D02*
G01X11418Y34450D01*
G01X10250Y34450D01*
G01X4600Y28800D01*
G01X13288Y22756D02*
G01X13288Y30411D01*
G01X13626Y30749D01*
G01X13972Y23252D02*
G01X13972Y24147D01*
G01X13288Y22756D02*
G01X12630Y22756D01*
G01X13972Y22756D02*
G01X13288Y22756D01*
G01X10600Y31800D02*
G01X10729Y31929D01*
G01X13513Y31929D01*
G01X13626Y31817D01*
G01X13626Y31817D02*
G01X17017Y31817D01*
G01X19100Y33900D01*
G01X13626Y31817D02*
G01X13626Y30749D01*
G01X13972Y22756D02*
G01X13972Y23252D01*
G01X16769Y22756D02*
G01X13972Y22756D01*
G01X12139Y23109D02*
G01X12139Y22812D01*
G01X12630Y22578D02*
G01X12395Y22812D01*
G01X12139Y22812D01*
G01X12630Y22578D02*
G01X12630Y22756D01*
G01X12630Y22400D02*
G01X12630Y22578D01*
G01X16769Y22718D02*
G01X16769Y22756D01*
G01X16769Y22400D02*
G01X16769Y22718D01*
G01X17260Y22961D02*
G01X17054Y22756D01*
G01X16769Y22756D01*
G01X17260Y22961D02*
G01X17260Y22812D01*
G01X17260Y23109D02*
G01X17260Y22961D01*
G01X4600Y29800D02*
G01X4600Y30800D01*
G01X1500Y33900D02*
G01X1910Y33489D01*
G01X1910Y28410D01*
G01X1500Y28000D01*
G01X1500Y22100D02*
G01X1942Y22542D01*
G01X1942Y27557D01*
G01X1500Y28000D01*
G01X19100Y22100D02*
G01X17972Y22100D01*
G01X17260Y22812D01*
G54D12*
G01X10600Y32800D02*
G01X11138Y33338D01*
G01X11138Y33841D01*
G01X1500Y25000D02*
G01X1004Y24504D01*
G01X1004Y19595D01*
G01X1500Y19100D01*
G01X1500Y30900D02*
G01X1029Y30429D01*
G01X1029Y25470D01*
G01X1500Y25000D01*
G01X19100Y19100D02*
G01X19570Y19570D01*
G01X19570Y30429D01*
G01X19100Y30900D01*
G54D11*
G01X14267Y24462D02*
G01X15030Y23700D01*
G01X17260Y23700D01*
G01X13951Y24462D02*
G01X14267Y24462D01*
G01X14267Y25107D02*
G01X14267Y24462D01*
G01X7473Y24308D02*
G01X7473Y26673D01*
G01X10600Y29800D01*
G01X10600Y29800D02*
G01X11143Y29800D01*
G01X13043Y31699D01*
G01X12627Y30048D02*
G01X13379Y30799D01*
G01X13379Y31521D01*
G01X10600Y25800D02*
G01X11119Y26319D01*
G01X11119Y29215D01*
G01X11807Y29902D01*
G01X12482Y29902D01*
G01X12627Y30048D01*
G01X12990Y24549D02*
G01X12990Y29685D01*
G01X12627Y30048D01*
G54D12*
G01X12632Y29703D02*
G01X12632Y22997D01*
G01X13585Y23271D02*
G01X13585Y27386D01*
G01X19100Y32900D01*
G54D11*
G01X4600Y21800D02*
G01X5100Y22300D01*
G01X11235Y22300D01*
G01X11346Y22189D01*
G01X11185Y25049D02*
G01X11185Y24384D01*
G01X10600Y23800D01*
G54D12*
G01X11642Y27928D02*
G01X11642Y22073D01*
G01X10668Y21100D01*
G01X1500Y21100D01*
G54D11*
G01X4600Y31800D02*
G01X7401Y34601D01*
G01X18994Y34601D01*
G01X19510Y34085D01*
G01X19510Y32644D01*
G01X19265Y32400D01*
G01X19020Y32400D01*
G01X17260Y30639D01*
G01X17260Y30200D01*
G01X4600Y32800D02*
G01X6625Y34825D01*
G01X18982Y34825D01*
G01X19660Y34147D01*
G01X19660Y31838D01*
G01X19221Y31400D01*
G01X18932Y31400D01*
G01X18551Y31018D01*
G01X18551Y30891D01*
G01X17557Y29897D01*
G01X17260Y29897D01*
G01X17260Y29600D02*
G01X17260Y29897D01*
G01X4600Y22800D02*
G01X5119Y23319D01*
G01X5119Y27017D01*
G01X10402Y32300D01*
G01X11745Y32300D01*
G01X11812Y32232D01*
G01X15027Y32232D01*
G01X15340Y32546D01*
G54D14*
G01X15000Y22400D03*
G01X16769Y22400D03*
G01X16180Y22400D03*
G01X15589Y22400D03*
G01X14400Y22400D03*
G01X13810Y22400D03*
G01X13219Y22400D03*
G01X12630Y22400D03*
G54D15*
G01X12139Y23109D03*
G01X12139Y23700D03*
G01X12139Y24290D03*
G01X12139Y24880D03*
G01X12139Y25469D03*
G01X12139Y26059D03*
G01X12139Y26650D03*
G01X12139Y27240D03*
G01X12139Y27830D03*
G01X12139Y28419D03*
G01X12139Y29009D03*
G01X12139Y29600D03*
G01X12139Y30200D03*
G01X17260Y30200D03*
G01X17260Y29600D03*
G01X17260Y29009D03*
G01X17260Y28419D03*
G01X17260Y27830D03*
G01X17260Y27240D03*
G01X17260Y26650D03*
G01X17260Y26059D03*
G01X17260Y25469D03*
G01X17260Y24880D03*
G01X17260Y24290D03*
G01X17260Y23700D03*
G01X17260Y23109D03*
G54D16*
G01X4600Y21800D03*
G01X4600Y22800D03*
G01X4600Y23800D03*
G01X4600Y24800D03*
G01X4600Y25800D03*
G01X4600Y26800D03*
G01X4600Y27800D03*
G01X4600Y28800D03*
G01X4600Y29800D03*
G01X4600Y30800D03*
G01X4600Y31800D03*
G01X4600Y32800D03*
G01X10600Y32800D03*
G01X10600Y31800D03*
G01X10600Y30800D03*
G01X10600Y29800D03*
G01X10600Y28800D03*
G01X10600Y27800D03*
G01X10600Y26800D03*
G01X10600Y25800D03*
G01X10600Y24800D03*
G01X10600Y23800D03*
G01X10600Y22800D03*
G01X10600Y21800D03*
G54D18*
G01X1500Y28000D03*
G01X1500Y27000D03*
G01X1500Y26000D03*
G01X1500Y25000D03*
G01X1500Y33900D03*
G01X1500Y32900D03*
G01X1500Y31900D03*
G01X1500Y30900D03*
G01X1500Y22100D03*
G01X1500Y21100D03*
G01X1500Y20100D03*
G01X1500Y19100D03*
G01X19100Y33900D03*
G01X19100Y32900D03*
G01X19100Y31900D03*
G01X19100Y30900D03*
G01X19100Y22100D03*
G01X19100Y21100D03*
G01X19100Y20100D03*
G01X19100Y19100D03*
G54D13*
G01X15340Y32546D03*
G01X7928Y27455D03*
G01X12714Y32471D03*
G01X12459Y33036D03*
G01X12326Y33542D03*
G01X13626Y30748D03*
G01X13972Y24146D03*
G01X13972Y23253D03*
G01X11138Y33840D03*
G01X14267Y25107D03*
G01X13952Y24463D03*
G01X13043Y31700D03*
G01X7472Y24307D03*
G01X12990Y24550D03*
G01X13380Y31521D03*
G01X12632Y29703D03*
G01X12632Y22998D03*
G01X13585Y23271D03*
G01X11347Y22188D03*
G01X11185Y25048D03*
G01X11642Y27928D03*
G54D16*
G01X4600Y21800D03*
G01X4600Y22800D03*
G01X4600Y23800D03*
G01X4600Y24800D03*
G01X4600Y25800D03*
G01X4600Y26800D03*
G01X4600Y27800D03*
G01X4600Y28800D03*
G01X4600Y29800D03*
G01X4600Y30800D03*
G01X4600Y31800D03*
G01X4600Y32800D03*
G01X10600Y32800D03*
G01X10600Y31800D03*
G01X10600Y30800D03*
G01X10600Y29800D03*
G01X10600Y28800D03*
G01X10600Y27800D03*
G01X10600Y26800D03*
G01X10600Y25800D03*
G01X10600Y24800D03*
G01X10600Y23800D03*
G01X10600Y22800D03*
G01X10600Y21800D03*
G54D18*
G01X1500Y28000D03*
G01X1500Y27000D03*
G01X1500Y26000D03*
G01X1500Y25000D03*
G01X1500Y33900D03*
G01X1500Y32900D03*
G01X1500Y31900D03*
G01X1500Y30900D03*
G01X1500Y22100D03*
G01X1500Y21100D03*
G01X1500Y20100D03*
G01X1500Y19100D03*
G01X19100Y33900D03*
G01X19100Y32900D03*
G01X19100Y31900D03*
G01X19100Y30900D03*
G01X19100Y22100D03*
G01X19100Y21100D03*
G01X19100Y20100D03*
G01X19100Y19100D03*

M00*
M02*