G04 ---------------------------- Layer name :BOTTOM SILK LAYER*
G04 easyEDA 0.1*
G04 Scale: 100 percent, Rotated: No, Reflected: No *
G04 Dimensions in inches *
G04 leading zeros omitted , absolute positions ,2 integer and 4 * 
%FSLAX24Y24*%
%MOIN*%
G90*
G70D02*

%ADD10C,0.010000*%
%ADD11C,0.015000*%
%ADD12C,0.006000*%
%ADD13C,0.007000*%

%LPD*%
%LNVIA PAD TRACK COPPERAREA*%
G54D10*
G01X4100Y23550D02*
G01X4350Y23300D01*
G01X4100Y23050D01*
G01X4100Y22550D01*
G01X4350Y22300D01*
G01X4100Y22050D01*
G01X4100Y21550D01*
G01X4350Y21300D01*
G01X4850Y21300D01*
G01X5100Y21550D01*
G01X5100Y22050D01*
G01X4850Y22300D01*
G01X5100Y22550D01*
G01X5100Y23050D01*
G01X4850Y23300D01*
G01X5100Y23550D01*
G01X5100Y24050D01*
G01X4850Y24300D01*
G01X5100Y24550D01*
G01X5100Y25050D01*
G01X4850Y25300D01*
G01X5100Y25550D01*
G01X5100Y26050D01*
G01X4850Y26300D01*
G01X5100Y26550D01*
G01X5100Y27050D01*
G01X4850Y27300D01*
G01X5100Y27550D01*
G01X5100Y28050D01*
G01X4850Y28300D01*
G01X5100Y28550D01*
G01X5100Y29050D01*
G01X4850Y29300D01*
G01X5100Y29550D01*
G01X5100Y30050D01*
G01X4850Y30300D01*
G01X5100Y30550D01*
G01X5100Y31050D01*
G01X4850Y31300D01*
G01X5100Y31550D01*
G01X5100Y32050D01*
G01X4850Y32300D01*
G01X5100Y32550D01*
G01X5100Y33050D01*
G01X4850Y33300D01*
G01X4350Y33300D01*
G01X4100Y33050D01*
G01X4100Y32550D01*
G01X4350Y32300D01*
G01X4100Y32050D01*
G01X4100Y31550D01*
G01X4350Y31300D01*
G01X4100Y31050D01*
G01X4100Y30550D01*
G01X4350Y30300D01*
G01X4100Y30050D01*
G01X4100Y29550D01*
G01X4350Y29300D01*
G01X4100Y29050D01*
G01X4100Y28550D01*
G01X4350Y28300D01*
G01X4100Y28050D01*
G01X4100Y27550D01*
G01X4350Y27300D01*
G01X4100Y27050D01*
G01X4100Y26550D01*
G01X4350Y26300D01*
G01X4100Y26050D01*
G01X4100Y25550D01*
G01X4350Y25300D01*
G01X4100Y25050D01*
G01X4100Y24550D01*
G01X4350Y24300D01*
G01X4100Y24050D01*
G01X4100Y23550D01*
G01X11100Y31050D02*
G01X10850Y31300D01*
G01X11100Y31550D01*
G01X11100Y32050D01*
G01X10850Y32300D01*
G01X11100Y32550D01*
G01X11100Y33050D01*
G01X10850Y33300D01*
G01X10350Y33300D01*
G01X10100Y33050D01*
G01X10100Y32550D01*
G01X10350Y32300D01*
G01X10100Y32050D01*
G01X10100Y31550D01*
G01X10350Y31300D01*
G01X10100Y31050D01*
G01X10100Y30550D01*
G01X10350Y30300D01*
G01X10100Y30050D01*
G01X10100Y29550D01*
G01X10350Y29300D01*
G01X10100Y29050D01*
G01X10100Y28550D01*
G01X10350Y28300D01*
G01X10100Y28050D01*
G01X10100Y27550D01*
G01X10350Y27300D01*
G01X10100Y27050D01*
G01X10100Y26550D01*
G01X10350Y26300D01*
G01X10100Y26050D01*
G01X10100Y25550D01*
G01X10350Y25300D01*
G01X10100Y25050D01*
G01X10100Y24550D01*
G01X10350Y24300D01*
G01X10100Y24050D01*
G01X10100Y23550D01*
G01X10350Y23300D01*
G01X10100Y23050D01*
G01X10100Y22550D01*
G01X10350Y22300D01*
G01X10100Y22050D01*
G01X10100Y21550D01*
G01X10350Y21300D01*
G01X10850Y21300D01*
G01X11100Y21550D01*
G01X11100Y22050D01*
G01X10850Y22300D01*
G01X11100Y22550D01*
G01X11100Y23050D01*
G01X10850Y23300D01*
G01X11100Y23550D01*
G01X11100Y24050D01*
G01X10850Y24300D01*
G01X11100Y24550D01*
G01X11100Y25050D01*
G01X10850Y25300D01*
G01X11100Y25550D01*
G01X11100Y26050D01*
G01X10850Y26300D01*
G01X11100Y26550D01*
G01X11100Y27050D01*
G01X10850Y27300D01*
G01X11100Y27550D01*
G01X11100Y28050D01*
G01X10850Y28300D01*
G01X11100Y28550D01*
G01X11100Y29050D01*
G01X10850Y29300D01*
G01X11100Y29550D01*
G01X11100Y30050D01*
G01X10850Y30300D01*
G01X11100Y30550D01*
G01X11100Y31050D01*
G01X17260Y30430D02*
G01X17260Y30900D01*
G01X17260Y32990D01*
G01X12139Y32990D01*
G01X12139Y30900D01*
G01X17260Y30900D01*
G01X12339Y30959D02*
G01X12339Y32730D01*
G01X13080Y32730D01*
G01X13080Y31409D01*
G01X13810Y31409D01*
G01X13810Y32730D01*
G01X14550Y32730D01*
G01X14550Y31409D01*
G01X15289Y31409D01*
G01X15289Y32730D01*
G01X16030Y32730D01*
G01X16030Y31409D01*
G01X16769Y31409D01*
G01X16769Y32730D01*
G01X17060Y32730D01*
G01X12419Y22400D02*
G01X12139Y22400D01*
G01X12139Y22869D01*
G01X12139Y23340D02*
G01X12139Y23459D01*
G01X12139Y23940D02*
G01X12139Y24050D01*
G01X12139Y24530D02*
G01X12139Y24640D01*
G01X12139Y25119D02*
G01X12139Y25230D01*
G01X12139Y25709D02*
G01X12139Y25830D01*
G01X12139Y26300D02*
G01X12139Y26419D01*
G01X12139Y26890D02*
G01X12139Y27009D01*
G01X12139Y27480D02*
G01X12139Y27600D01*
G01X12139Y28069D02*
G01X12139Y28190D01*
G01X12139Y28659D02*
G01X12139Y28780D01*
G01X12139Y29250D02*
G01X12139Y29369D01*
G01X12139Y29840D02*
G01X12139Y29959D01*
G01X12139Y30430D02*
G01X12139Y30900D01*
G01X17260Y29840D02*
G01X17260Y29959D01*
G01X17260Y29250D02*
G01X17260Y29369D01*
G01X17260Y28659D02*
G01X17260Y28780D01*
G01X17260Y28069D02*
G01X17260Y28190D01*
G01X17260Y27480D02*
G01X17260Y27600D01*
G01X17260Y26890D02*
G01X17260Y27009D01*
G01X17260Y26300D02*
G01X17260Y26419D01*
G01X17260Y25709D02*
G01X17260Y25830D01*
G01X17260Y25119D02*
G01X17260Y25230D01*
G01X17260Y24530D02*
G01X17260Y24640D01*
G01X17260Y23940D02*
G01X17260Y24050D01*
G01X17260Y23340D02*
G01X17260Y23459D01*
G01X17260Y22869D02*
G01X17260Y22400D01*
G01X16980Y22400D01*
G01X16550Y22400D02*
G01X16389Y22400D01*
G01X15960Y22400D02*
G01X15800Y22400D01*
G01X15369Y22400D02*
G01X15210Y22400D01*
G01X14780Y22400D02*
G01X14619Y22400D01*
G01X14189Y22400D02*
G01X14030Y22400D01*
G01X13600Y22400D02*
G01X13439Y22400D01*
G01X13010Y22400D02*
G01X12850Y22400D01*
G54D12*
G01X4993Y23184D02*
G01X4993Y22965D01*
G01X5006Y22925D01*
G01X5021Y22911D01*
G01X5047Y22896D01*
G01X5075Y22896D01*
G01X5102Y22911D01*
G01X5115Y22925D01*
G01X5130Y22965D01*
G01X5130Y22992D01*
G01X4903Y23184D02*
G01X4903Y22896D01*
G01X4903Y23184D02*
G01X4781Y23184D01*
G01X4739Y23169D01*
G01X4726Y23155D01*
G01X4713Y23128D01*
G01X4713Y23088D01*
G01X4726Y23061D01*
G01X4739Y23046D01*
G01X4781Y23034D01*
G01X4903Y23034D01*
G01X4432Y23184D02*
G01X4567Y22896D01*
G01X4622Y23184D02*
G01X4432Y23184D01*
G54D13*
G01X15600Y33744D02*
G01X15600Y33315D01*
G01X15314Y33744D02*
G01X15314Y33315D01*
G01X15600Y33540D02*
G01X15314Y33540D01*
G01X15178Y33744D02*
G01X15178Y33315D01*
G01X15178Y33744D02*
G01X15014Y33315D01*
G01X14851Y33744D02*
G01X15014Y33315D01*
G01X14851Y33744D02*
G01X14851Y33315D01*
G01X14715Y33500D02*
G01X14347Y33500D01*
G01X14213Y33663D02*
G01X14172Y33684D01*
G01X14110Y33744D01*
G01X14110Y33315D01*
G01X13852Y33744D02*
G01X13914Y33725D01*
G01X13955Y33663D01*
G01X13976Y33561D01*
G01X13976Y33500D01*
G01X13955Y33398D01*
G01X13914Y33336D01*
G01X13852Y33315D01*
G01X13811Y33315D01*
G01X13751Y33336D01*
G01X13710Y33398D01*
G01X13689Y33500D01*
G01X13689Y33561D01*
G01X13710Y33663D01*
G01X13751Y33725D01*
G01X13811Y33744D01*
G01X13852Y33744D01*
G54D11*
G75*
G01X17050Y30650D02*
G03X17050Y30650I-100J0D01*
G01*

%LPD*%
%LNFill Path*%
G36*
G01X7400Y30200D02*
G01X7400Y30200D01*
G01X7400Y30200D01*
G01X7355Y30194D01*
G01X7317Y30190D01*
G01X7284Y30185D01*
G01X7255Y30180D01*
G01X7231Y30175D01*
G01X7210Y30170D01*
G01X7194Y30163D01*
G01X7180Y30156D01*
G01X7170Y30147D01*
G01X7162Y30136D01*
G01X7156Y30124D01*
G01X7153Y30109D01*
G01X7150Y30093D01*
G01X7149Y30073D01*
G01X7149Y30051D01*
G01X7148Y30026D01*
G01X7148Y29900D01*
G01X7051Y29898D01*
G01X7051Y29898D01*
G01X7034Y29898D01*
G01X7017Y29898D01*
G01X7002Y29897D01*
G01X6988Y29896D01*
G01X6974Y29894D01*
G01X6961Y29892D01*
G01X6949Y29889D01*
G01X6938Y29885D01*
G01X6927Y29881D01*
G01X6917Y29876D01*
G01X6908Y29870D01*
G01X6899Y29863D01*
G01X6891Y29855D01*
G01X6883Y29846D01*
G01X6877Y29836D01*
G01X6870Y29824D01*
G01X6864Y29812D01*
G01X6859Y29798D01*
G01X6854Y29782D01*
G01X6850Y29765D01*
G01X6846Y29747D01*
G01X6843Y29727D01*
G01X6839Y29706D01*
G01X6837Y29682D01*
G01X6834Y29657D01*
G01X6832Y29630D01*
G01X6830Y29601D01*
G01X6829Y29571D01*
G01X6828Y29538D01*
G01X6827Y29503D01*
G01X6826Y29465D01*
G01X6825Y29426D01*
G01X6825Y29384D01*
G01X6825Y29340D01*
G01X6825Y29294D01*
G01X6825Y29244D01*
G01X6825Y28748D01*
G01X6884Y28690D01*
G01X6884Y28690D01*
G01X6897Y28678D01*
G01X6913Y28666D01*
G01X6930Y28654D01*
G01X6948Y28644D01*
G01X6968Y28635D01*
G01X6987Y28627D01*
G01X7005Y28621D01*
G01X7022Y28617D01*
G01X7022Y28617D01*
G01X7062Y28606D01*
G01X7087Y28593D01*
G01X7099Y28573D01*
G01X7102Y28544D01*
G01X7102Y28488D01*
G01X7601Y28488D01*
G01X8097Y28488D01*
G01X8097Y28542D01*
G01X8097Y28542D01*
G01X8101Y28571D01*
G01X8114Y28590D01*
G01X8138Y28603D01*
G01X8178Y28613D01*
G01X8178Y28613D01*
G01X8196Y28618D01*
G01X8215Y28624D01*
G01X8235Y28631D01*
G01X8255Y28640D01*
G01X8274Y28650D01*
G01X8292Y28661D01*
G01X8309Y28672D01*
G01X8323Y28684D01*
G01X8388Y28738D01*
G01X8394Y29219D01*
G01X8394Y29219D01*
G01X8395Y29271D01*
G01X8396Y29320D01*
G01X8396Y29367D01*
G01X8396Y29410D01*
G01X8396Y29451D01*
G01X8396Y29489D01*
G01X8395Y29524D01*
G01X8395Y29557D01*
G01X8394Y29587D01*
G01X8392Y29615D01*
G01X8391Y29641D01*
G01X8389Y29665D01*
G01X8386Y29687D01*
G01X8384Y29707D01*
G01X8380Y29726D01*
G01X8377Y29743D01*
G01X8373Y29758D01*
G01X8369Y29773D01*
G01X8364Y29785D01*
G01X8359Y29797D01*
G01X8353Y29808D01*
G01X8347Y29818D01*
G01X8340Y29827D01*
G01X8333Y29836D01*
G01X8325Y29844D01*
G01X8316Y29851D01*
G01X8307Y29858D01*
G01X8297Y29865D01*
G01X8297Y29865D01*
G01X8272Y29879D01*
G01X8238Y29890D01*
G01X8200Y29897D01*
G01X8163Y29900D01*
G01X8075Y29900D01*
G01X8075Y30026D01*
G01X8075Y30026D01*
G01X8074Y30061D01*
G01X8073Y30089D01*
G01X8070Y30112D01*
G01X8066Y30130D01*
G01X8060Y30143D01*
G01X8053Y30153D01*
G01X8043Y30160D01*
G01X8031Y30165D01*
G01X8031Y30165D01*
G01X8022Y30167D01*
G01X8008Y30170D01*
G01X7990Y30173D01*
G01X7969Y30176D01*
G01X7946Y30180D01*
G01X7919Y30184D01*
G01X7891Y30188D01*
G01X7862Y30192D01*
G01X7831Y30196D01*
G01X7800Y30200D01*
G01X7770Y30203D01*
G01X7739Y30207D01*
G01X7710Y30210D01*
G01X7683Y30213D01*
G01X7657Y30216D01*
G01X7634Y30218D01*
G01X7614Y30219D01*
G01X7598Y30220D01*
G01X7585Y30221D01*
G01X7577Y30221D01*
G01X7577Y30221D01*
G01X7570Y30219D01*
G01X7556Y30218D01*
G01X7538Y30216D01*
G01X7515Y30213D01*
G01X7490Y30210D01*
G01X7461Y30207D01*
G01X7431Y30203D01*
G01X7400Y30200D01*
G37*
G36*
G01X6792Y28413D02*
G01X6792Y28413D01*
G01X6792Y28413D01*
G01X6787Y28396D01*
G01X6781Y28373D01*
G01X6774Y28347D01*
G01X6768Y28319D01*
G01X6768Y28319D01*
G01X6760Y28287D01*
G01X6749Y28271D01*
G01X6733Y28269D01*
G01X6710Y28278D01*
G01X6710Y28278D01*
G01X6693Y28286D01*
G01X6676Y28292D01*
G01X6657Y28297D01*
G01X6638Y28300D01*
G01X6618Y28301D01*
G01X6597Y28301D01*
G01X6576Y28299D01*
G01X6555Y28295D01*
G01X6534Y28290D01*
G01X6512Y28284D01*
G01X6491Y28276D01*
G01X6469Y28267D01*
G01X6469Y28267D01*
G01X6458Y28260D01*
G01X6446Y28253D01*
G01X6434Y28244D01*
G01X6421Y28235D01*
G01X6408Y28224D01*
G01X6396Y28212D01*
G01X6382Y28198D01*
G01X6369Y28184D01*
G01X6355Y28168D01*
G01X6340Y28151D01*
G01X6326Y28132D01*
G01X6311Y28112D01*
G01X6295Y28090D01*
G01X6279Y28067D01*
G01X6263Y28043D01*
G01X6246Y28017D01*
G01X6228Y27990D01*
G01X6210Y27961D01*
G01X6192Y27930D01*
G01X6172Y27898D01*
G01X6172Y27898D01*
G01X6163Y27882D01*
G01X6153Y27864D01*
G01X6141Y27845D01*
G01X6129Y27824D01*
G01X6115Y27801D01*
G01X6101Y27777D01*
G01X6086Y27753D01*
G01X6070Y27727D01*
G01X6054Y27700D01*
G01X6038Y27674D01*
G01X6021Y27646D01*
G01X6005Y27619D01*
G01X5988Y27592D01*
G01X5971Y27565D01*
G01X5955Y27539D01*
G01X5939Y27513D01*
G01X5939Y27513D01*
G01X5924Y27487D01*
G01X5908Y27461D01*
G01X5893Y27434D01*
G01X5878Y27407D01*
G01X5864Y27379D01*
G01X5849Y27351D01*
G01X5836Y27324D01*
G01X5822Y27296D01*
G01X5809Y27268D01*
G01X5797Y27240D01*
G01X5785Y27213D01*
G01X5773Y27185D01*
G01X5762Y27158D01*
G01X5752Y27131D01*
G01X5742Y27104D01*
G01X5732Y27078D01*
G01X5723Y27053D01*
G01X5715Y27028D01*
G01X5707Y27003D01*
G01X5700Y26979D01*
G01X5694Y26956D01*
G01X5688Y26934D01*
G01X5683Y26912D01*
G01X5679Y26892D01*
G01X5675Y26872D01*
G01X5672Y26854D01*
G01X5670Y26837D01*
G01X5669Y26820D01*
G01X5669Y26805D01*
G01X5669Y26792D01*
G01X5671Y26779D01*
G01X5673Y26768D01*
G01X5676Y26759D01*
G01X5680Y26751D01*
G01X5685Y26744D01*
G01X5690Y26740D01*
G01X5690Y26740D01*
G01X5703Y26730D01*
G01X5710Y26721D01*
G01X5711Y26712D01*
G01X5706Y26702D01*
G01X5695Y26692D01*
G01X5677Y26680D01*
G01X5652Y26667D01*
G01X5621Y26652D01*
G01X5621Y26652D01*
G01X5596Y26639D01*
G01X5573Y26626D01*
G01X5552Y26612D01*
G01X5533Y26597D01*
G01X5515Y26581D01*
G01X5499Y26564D01*
G01X5485Y26546D01*
G01X5472Y26527D01*
G01X5461Y26507D01*
G01X5451Y26486D01*
G01X5443Y26464D01*
G01X5436Y26441D01*
G01X5431Y26416D01*
G01X5427Y26390D01*
G01X5425Y26363D01*
G01X5425Y26334D01*
G01X5425Y26334D01*
G01X5425Y26300D01*
G01X5427Y26270D01*
G01X5431Y26243D01*
G01X5436Y26219D01*
G01X5443Y26196D01*
G01X5453Y26175D01*
G01X5465Y26154D01*
G01X5480Y26134D01*
G01X5480Y26134D01*
G01X5496Y26112D01*
G01X5513Y26093D01*
G01X5528Y26077D01*
G01X5542Y26064D01*
G01X5555Y26053D01*
G01X5568Y26046D01*
G01X5579Y26041D01*
G01X5590Y26040D01*
G01X5599Y26041D01*
G01X5607Y26045D01*
G01X5615Y26051D01*
G01X5621Y26061D01*
G01X5627Y26073D01*
G01X5631Y26088D01*
G01X5634Y26106D01*
G01X5636Y26127D01*
G01X5637Y26150D01*
G01X5637Y26176D01*
G01X5636Y26205D01*
G01X5634Y26236D01*
G01X5634Y26236D01*
G01X5630Y26276D01*
G01X5629Y26311D01*
G01X5629Y26342D01*
G01X5631Y26369D01*
G01X5636Y26393D01*
G01X5642Y26414D01*
G01X5651Y26432D01*
G01X5662Y26448D01*
G01X5676Y26462D01*
G01X5693Y26475D01*
G01X5713Y26486D01*
G01X5735Y26496D01*
G01X5735Y26496D01*
G01X5757Y26504D01*
G01X5779Y26508D01*
G01X5802Y26510D01*
G01X5825Y26509D01*
G01X5847Y26506D01*
G01X5869Y26500D01*
G01X5891Y26493D01*
G01X5910Y26483D01*
G01X5929Y26471D01*
G01X5945Y26458D01*
G01X5958Y26442D01*
G01X5969Y26426D01*
G01X5969Y26426D01*
G01X5980Y26401D01*
G01X5987Y26376D01*
G01X5990Y26349D01*
G01X5990Y26323D01*
G01X5987Y26298D01*
G01X5980Y26276D01*
G01X5971Y26257D01*
G01X5957Y26242D01*
G01X5957Y26242D01*
G01X5949Y26232D01*
G01X5941Y26216D01*
G01X5932Y26196D01*
G01X5924Y26172D01*
G01X5917Y26145D01*
G01X5910Y26118D01*
G01X5905Y26091D01*
G01X5901Y26064D01*
G01X5899Y26041D01*
G01X5899Y26021D01*
G01X5901Y26006D01*
G01X5906Y25996D01*
G01X5906Y25996D01*
G01X5913Y25993D01*
G01X5924Y25993D01*
G01X5939Y25997D01*
G01X5956Y26004D01*
G01X5975Y26014D01*
G01X5996Y26026D01*
G01X6017Y26040D01*
G01X6038Y26055D01*
G01X6060Y26072D01*
G01X6080Y26090D01*
G01X6099Y26108D01*
G01X6115Y26127D01*
G01X6115Y26127D01*
G01X6131Y26147D01*
G01X6145Y26167D01*
G01X6157Y26189D01*
G01X6168Y26211D01*
G01X6176Y26233D01*
G01X6183Y26256D01*
G01X6188Y26279D01*
G01X6192Y26302D01*
G01X6193Y26326D01*
G01X6193Y26349D01*
G01X6191Y26373D01*
G01X6187Y26396D01*
G01X6182Y26419D01*
G01X6175Y26442D01*
G01X6166Y26465D01*
G01X6155Y26488D01*
G01X6142Y26510D01*
G01X6128Y26531D01*
G01X6112Y26552D01*
G01X6094Y26573D01*
G01X6094Y26573D01*
G01X6071Y26600D01*
G01X6059Y26619D01*
G01X6058Y26631D01*
G01X6068Y26636D01*
G01X6068Y26636D01*
G01X6078Y26636D01*
G01X6088Y26639D01*
G01X6098Y26644D01*
G01X6109Y26651D01*
G01X6118Y26660D01*
G01X6128Y26671D01*
G01X6139Y26685D01*
G01X6149Y26702D01*
G01X6159Y26721D01*
G01X6170Y26742D01*
G01X6181Y26767D01*
G01X6192Y26795D01*
G01X6204Y26825D01*
G01X6217Y26859D01*
G01X6230Y26896D01*
G01X6243Y26936D01*
G01X6243Y26936D01*
G01X6252Y26962D01*
G01X6261Y26987D01*
G01X6271Y27013D01*
G01X6281Y27040D01*
G01X6292Y27066D01*
G01X6303Y27093D01*
G01X6315Y27119D01*
G01X6327Y27146D01*
G01X6340Y27172D01*
G01X6353Y27198D01*
G01X6366Y27223D01*
G01X6379Y27247D01*
G01X6392Y27271D01*
G01X6405Y27294D01*
G01X6418Y27316D01*
G01X6431Y27338D01*
G01X6431Y27338D01*
G01X6448Y27363D01*
G01X6464Y27388D01*
G01X6480Y27413D01*
G01X6495Y27438D01*
G01X6510Y27463D01*
G01X6525Y27487D01*
G01X6538Y27509D01*
G01X6550Y27530D01*
G01X6562Y27549D01*
G01X6571Y27566D01*
G01X6579Y27581D01*
G01X6585Y27592D01*
G01X6585Y27592D01*
G01X6593Y27607D01*
G01X6600Y27618D01*
G01X6606Y27628D01*
G01X6611Y27636D01*
G01X6616Y27641D01*
G01X6620Y27644D01*
G01X6624Y27644D01*
G01X6626Y27642D01*
G01X6628Y27638D01*
G01X6630Y27631D01*
G01X6630Y27622D01*
G01X6630Y27610D01*
G01X6629Y27596D01*
G01X6628Y27579D01*
G01X6625Y27559D01*
G01X6622Y27537D01*
G01X6619Y27512D01*
G01X6614Y27484D01*
G01X6609Y27453D01*
G01X6603Y27420D01*
G01X6597Y27383D01*
G01X6589Y27344D01*
G01X6581Y27302D01*
G01X6572Y27257D01*
G01X6572Y27257D01*
G01X6567Y27227D01*
G01X6561Y27197D01*
G01X6555Y27166D01*
G01X6549Y27136D01*
G01X6543Y27105D01*
G01X6537Y27074D01*
G01X6531Y27043D01*
G01X6525Y27013D01*
G01X6520Y26983D01*
G01X6514Y26953D01*
G01X6509Y26925D01*
G01X6503Y26897D01*
G01X6498Y26870D01*
G01X6493Y26845D01*
G01X6489Y26820D01*
G01X6484Y26797D01*
G01X6480Y26776D01*
G01X6477Y26756D01*
G01X6473Y26738D01*
G01X6471Y26723D01*
G01X6439Y26542D01*
G01X7603Y26542D01*
G01X7603Y26542D01*
G01X7661Y26542D01*
G01X7717Y26542D01*
G01X7770Y26542D01*
G01X7822Y26542D01*
G01X7872Y26542D01*
G01X7921Y26542D01*
G01X7968Y26542D01*
G01X8013Y26542D01*
G01X8056Y26542D01*
G01X8098Y26542D01*
G01X8138Y26542D01*
G01X8176Y26542D01*
G01X8214Y26542D01*
G01X8249Y26542D01*
G01X8283Y26542D01*
G01X8316Y26542D01*
G01X8347Y26542D01*
G01X8377Y26543D01*
G01X8405Y26543D01*
G01X8432Y26543D01*
G01X8458Y26544D01*
G01X8482Y26544D01*
G01X8506Y26545D01*
G01X8528Y26546D01*
G01X8548Y26547D01*
G01X8568Y26548D01*
G01X8587Y26549D01*
G01X8604Y26550D01*
G01X8621Y26551D01*
G01X8636Y26552D01*
G01X8650Y26554D01*
G01X8664Y26556D01*
G01X8676Y26558D01*
G01X8688Y26559D01*
G01X8698Y26562D01*
G01X8708Y26564D01*
G01X8717Y26566D01*
G01X8725Y26569D01*
G01X8733Y26572D01*
G01X8739Y26575D01*
G01X8745Y26578D01*
G01X8750Y26581D01*
G01X8755Y26585D01*
G01X8759Y26589D01*
G01X8762Y26593D01*
G01X8765Y26597D01*
G01X8767Y26601D01*
G01X8769Y26606D01*
G01X8771Y26611D01*
G01X8771Y26616D01*
G01X8772Y26621D01*
G01X8772Y26627D01*
G01X8772Y26632D01*
G01X8771Y26638D01*
G01X8770Y26645D01*
G01X8769Y26651D01*
G01X8767Y26658D01*
G01X8766Y26665D01*
G01X8764Y26673D01*
G01X8762Y26681D01*
G01X8760Y26689D01*
G01X8758Y26697D01*
G01X8756Y26706D01*
G01X8753Y26715D01*
G01X8751Y26724D01*
G01X8749Y26733D01*
G01X8747Y26743D01*
G01X8744Y26753D01*
G01X8744Y26753D01*
G01X8740Y26776D01*
G01X8736Y26801D01*
G01X8731Y26827D01*
G01X8726Y26854D01*
G01X8720Y26883D01*
G01X8715Y26913D01*
G01X8710Y26943D01*
G01X8704Y26975D01*
G01X8698Y27007D01*
G01X8693Y27040D01*
G01X8687Y27073D01*
G01X8681Y27107D01*
G01X8676Y27140D01*
G01X8670Y27174D01*
G01X8665Y27207D01*
G01X8659Y27239D01*
G01X8654Y27271D01*
G01X8649Y27303D01*
G01X8644Y27333D01*
G01X8639Y27363D01*
G01X8634Y27391D01*
G01X8630Y27418D01*
G01X8626Y27444D01*
G01X8623Y27467D01*
G01X8619Y27489D01*
G01X8616Y27510D01*
G01X8614Y27528D01*
G01X8612Y27543D01*
G01X8610Y27557D01*
G01X8609Y27567D01*
G01X8608Y27575D01*
G01X8607Y27580D01*
G01X8607Y27580D01*
G01X8608Y27587D01*
G01X8610Y27592D01*
G01X8612Y27594D01*
G01X8616Y27594D01*
G01X8620Y27592D01*
G01X8626Y27588D01*
G01X8632Y27583D01*
G01X8639Y27575D01*
G01X8647Y27566D01*
G01X8655Y27555D01*
G01X8664Y27543D01*
G01X8674Y27529D01*
G01X8684Y27514D01*
G01X8695Y27498D01*
G01X8706Y27480D01*
G01X8717Y27462D01*
G01X8729Y27442D01*
G01X8742Y27421D01*
G01X8754Y27400D01*
G01X8767Y27377D01*
G01X8780Y27354D01*
G01X8793Y27330D01*
G01X8806Y27306D01*
G01X8819Y27282D01*
G01X8832Y27256D01*
G01X8845Y27231D01*
G01X8858Y27206D01*
G01X8871Y27180D01*
G01X8884Y27154D01*
G01X8896Y27128D01*
G01X8909Y27103D01*
G01X8920Y27077D01*
G01X8932Y27052D01*
G01X8943Y27027D01*
G01X8953Y27003D01*
G01X8963Y26979D01*
G01X8973Y26956D01*
G01X8982Y26933D01*
G01X8990Y26911D01*
G01X8997Y26890D01*
G01X8997Y26890D01*
G01X9012Y26848D01*
G01X9026Y26810D01*
G01X9039Y26776D01*
G01X9052Y26746D01*
G01X9063Y26720D01*
G01X9074Y26697D01*
G01X9084Y26678D01*
G01X9094Y26662D01*
G01X9104Y26648D01*
G01X9113Y26638D01*
G01X9122Y26631D01*
G01X9131Y26626D01*
G01X9181Y26603D01*
G01X9122Y26526D01*
G01X9122Y26526D01*
G01X9109Y26506D01*
G01X9096Y26485D01*
G01X9085Y26462D01*
G01X9076Y26439D01*
G01X9068Y26415D01*
G01X9062Y26391D01*
G01X9057Y26366D01*
G01X9053Y26341D01*
G01X9052Y26316D01*
G01X9052Y26290D01*
G01X9053Y26265D01*
G01X9057Y26241D01*
G01X9062Y26217D01*
G01X9068Y26193D01*
G01X9076Y26171D01*
G01X9086Y26150D01*
G01X9086Y26150D01*
G01X9098Y26130D01*
G01X9113Y26109D01*
G01X9131Y26088D01*
G01X9151Y26067D01*
G01X9172Y26047D01*
G01X9194Y26028D01*
G01X9216Y26011D01*
G01X9238Y25995D01*
G01X9259Y25983D01*
G01X9278Y25973D01*
G01X9296Y25967D01*
G01X9310Y25965D01*
G01X9310Y25965D01*
G01X9319Y25968D01*
G01X9324Y25979D01*
G01X9328Y25996D01*
G01X9330Y26018D01*
G01X9330Y26042D01*
G01X9328Y26069D01*
G01X9324Y26096D01*
G01X9319Y26122D01*
G01X9313Y26147D01*
G01X9306Y26169D01*
G01X9297Y26186D01*
G01X9288Y26198D01*
G01X9288Y26198D01*
G01X9277Y26209D01*
G01X9268Y26225D01*
G01X9262Y26243D01*
G01X9258Y26263D01*
G01X9256Y26285D01*
G01X9256Y26307D01*
G01X9259Y26330D01*
G01X9263Y26353D01*
G01X9270Y26374D01*
G01X9278Y26394D01*
G01X9289Y26412D01*
G01X9302Y26428D01*
G01X9302Y26428D01*
G01X9321Y26444D01*
G01X9343Y26457D01*
G01X9366Y26466D01*
G01X9392Y26473D01*
G01X9418Y26476D01*
G01X9444Y26476D01*
G01X9470Y26473D01*
G01X9495Y26466D01*
G01X9520Y26457D01*
G01X9542Y26445D01*
G01X9562Y26429D01*
G01X9580Y26411D01*
G01X9580Y26411D01*
G01X9601Y26378D01*
G01X9614Y26348D01*
G01X9618Y26319D01*
G01X9614Y26288D01*
G01X9614Y26288D01*
G01X9609Y26268D01*
G01X9606Y26244D01*
G01X9604Y26217D01*
G01X9602Y26188D01*
G01X9602Y26158D01*
G01X9602Y26128D01*
G01X9603Y26099D01*
G01X9605Y26073D01*
G01X9608Y26049D01*
G01X9612Y26030D01*
G01X9616Y26015D01*
G01X9622Y26007D01*
G01X9622Y26007D01*
G01X9631Y26003D01*
G01X9645Y26006D01*
G01X9663Y26015D01*
G01X9683Y26030D01*
G01X9705Y26049D01*
G01X9728Y26071D01*
G01X9750Y26097D01*
G01X9772Y26126D01*
G01X9772Y26126D01*
G01X9781Y26142D01*
G01X9789Y26160D01*
G01X9796Y26181D01*
G01X9802Y26203D01*
G01X9806Y26226D01*
G01X9809Y26251D01*
G01X9811Y26276D01*
G01X9811Y26302D01*
G01X9810Y26328D01*
G01X9807Y26354D01*
G01X9803Y26380D01*
G01X9798Y26405D01*
G01X9792Y26429D01*
G01X9784Y26451D01*
G01X9775Y26472D01*
G01X9764Y26492D01*
G01X9764Y26492D01*
G01X9753Y26508D01*
G01X9740Y26525D01*
G01X9724Y26542D01*
G01X9707Y26560D01*
G01X9688Y26577D01*
G01X9668Y26594D01*
G01X9648Y26609D01*
G01X9627Y26624D01*
G01X9606Y26637D01*
G01X9586Y26649D01*
G01X9567Y26658D01*
G01X9548Y26665D01*
G01X9548Y26665D01*
G01X9543Y26672D01*
G01X9543Y26687D01*
G01X9547Y26707D01*
G01X9556Y26730D01*
G01X9556Y26730D01*
G01X9561Y26743D01*
G01X9565Y26756D01*
G01X9567Y26770D01*
G01X9568Y26785D01*
G01X9567Y26803D01*
G01X9564Y26823D01*
G01X9560Y26846D01*
G01X9554Y26872D01*
G01X9546Y26903D01*
G01X9536Y26939D01*
G01X9524Y26980D01*
G01X9510Y27027D01*
G01X9510Y27027D01*
G01X9503Y27047D01*
G01X9496Y27067D01*
G01X9490Y27087D01*
G01X9483Y27106D01*
G01X9476Y27125D01*
G01X9469Y27143D01*
G01X9462Y27162D01*
G01X9455Y27180D01*
G01X9447Y27199D01*
G01X9439Y27218D01*
G01X9431Y27236D01*
G01X9422Y27255D01*
G01X9413Y27275D01*
G01X9403Y27294D01*
G01X9393Y27315D01*
G01X9382Y27336D01*
G01X9370Y27357D01*
G01X9358Y27380D01*
G01X9345Y27403D01*
G01X9331Y27427D01*
G01X9317Y27452D01*
G01X9302Y27478D01*
G01X9286Y27505D01*
G01X9269Y27534D01*
G01X9251Y27563D01*
G01X9232Y27595D01*
G01X9212Y27627D01*
G01X9190Y27661D01*
G01X9190Y27661D01*
G01X9174Y27689D01*
G01X9157Y27716D01*
G01X9140Y27743D01*
G01X9123Y27770D01*
G01X9107Y27797D01*
G01X9090Y27823D01*
G01X9074Y27848D01*
G01X9058Y27874D01*
G01X9042Y27898D01*
G01X9027Y27922D01*
G01X9012Y27945D01*
G01X8998Y27968D01*
G01X8984Y27989D01*
G01X8970Y28010D01*
G01X8957Y28029D01*
G01X8945Y28047D01*
G01X8934Y28065D01*
G01X8923Y28080D01*
G01X8913Y28095D01*
G01X8904Y28108D01*
G01X8896Y28120D01*
G01X8889Y28130D01*
G01X8883Y28139D01*
G01X8877Y28146D01*
G01X8877Y28146D01*
G01X8862Y28164D01*
G01X8846Y28181D01*
G01X8829Y28196D01*
G01X8812Y28211D01*
G01X8794Y28223D01*
G01X8775Y28234D01*
G01X8756Y28244D01*
G01X8736Y28253D01*
G01X8716Y28260D01*
G01X8695Y28265D01*
G01X8674Y28269D01*
G01X8652Y28272D01*
G01X8630Y28273D01*
G01X8607Y28272D01*
G01X8584Y28271D01*
G01X8560Y28267D01*
G01X8560Y28267D01*
G01X8509Y28260D01*
G01X8482Y28263D01*
G01X8471Y28278D01*
G01X8468Y28309D01*
G01X8468Y28309D01*
G01X8469Y28319D01*
G01X8469Y28328D01*
G01X8469Y28336D01*
G01X8469Y28344D01*
G01X8469Y28351D01*
G01X8469Y28359D01*
G01X8468Y28365D01*
G01X8467Y28372D01*
G01X8466Y28378D01*
G01X8464Y28383D01*
G01X8462Y28389D01*
G01X8459Y28394D01*
G01X8455Y28398D01*
G01X8451Y28403D01*
G01X8445Y28407D01*
G01X8439Y28411D01*
G01X8432Y28414D01*
G01X8424Y28417D01*
G01X8415Y28420D01*
G01X8404Y28423D01*
G01X8393Y28425D01*
G01X8380Y28428D01*
G01X8365Y28430D01*
G01X8350Y28431D01*
G01X8332Y28433D01*
G01X8313Y28435D01*
G01X8293Y28436D01*
G01X8270Y28437D01*
G01X8246Y28438D01*
G01X8220Y28439D01*
G01X8192Y28439D01*
G01X8162Y28440D01*
G01X8130Y28440D01*
G01X8096Y28441D01*
G01X8060Y28441D01*
G01X8021Y28441D01*
G01X7980Y28441D01*
G01X7936Y28442D01*
G01X7890Y28442D01*
G01X7842Y28442D01*
G01X7791Y28442D01*
G01X7737Y28442D01*
G01X7680Y28442D01*
G01X7621Y28442D01*
G01X7621Y28442D01*
G01X7562Y28441D01*
G01X7506Y28441D01*
G01X7453Y28441D01*
G01X7403Y28441D01*
G01X7354Y28441D01*
G01X7308Y28441D01*
G01X7265Y28440D01*
G01X7224Y28440D01*
G01X7185Y28440D01*
G01X7148Y28439D01*
G01X7113Y28439D01*
G01X7081Y28438D01*
G01X7050Y28437D01*
G01X7021Y28437D01*
G01X6995Y28436D01*
G01X6970Y28435D01*
G01X6947Y28434D01*
G01X6926Y28433D01*
G01X6907Y28432D01*
G01X6889Y28431D01*
G01X6873Y28430D01*
G01X6859Y28429D01*
G01X6846Y28428D01*
G01X6835Y28426D01*
G01X6825Y28425D01*
G01X6816Y28423D01*
G01X6809Y28422D01*
G01X6803Y28420D01*
G01X6798Y28418D01*
G01X6795Y28416D01*
G01X6793Y28415D01*
G01X6792Y28413D01*
G37*
G36*
G01X6455Y25513D02*
G01X6455Y25513D01*
G01X6455Y24530D01*
G01X7010Y24525D01*
G01X7565Y24517D01*
G01X7565Y24882D01*
G01X7565Y25246D01*
G01X7623Y25246D01*
G01X7681Y25246D01*
G01X7681Y24888D01*
G01X7681Y24530D01*
G01X8236Y24530D01*
G01X8793Y24530D01*
G01X8794Y25346D01*
G01X8794Y25346D01*
G01X8795Y25379D01*
G01X8795Y25413D01*
G01X8795Y25446D01*
G01X8795Y25479D01*
G01X8795Y25513D01*
G01X8795Y25546D01*
G01X8795Y25578D01*
G01X8795Y25611D01*
G01X8795Y25643D01*
G01X8795Y25675D01*
G01X8796Y25707D01*
G01X8796Y25738D01*
G01X8796Y25769D01*
G01X8796Y25799D01*
G01X8796Y25829D01*
G01X8796Y25859D01*
G01X8796Y25887D01*
G01X8796Y25916D01*
G01X8796Y25943D01*
G01X8797Y25971D01*
G01X8797Y25997D01*
G01X8797Y26023D01*
G01X8797Y26048D01*
G01X8797Y26072D01*
G01X8797Y26095D01*
G01X8797Y26118D01*
G01X8798Y26139D01*
G01X8798Y26160D01*
G01X8798Y26180D01*
G01X8798Y26199D01*
G01X8798Y26217D01*
G01X8798Y26234D01*
G01X8798Y26250D01*
G01X8799Y26265D01*
G01X8799Y26278D01*
G01X8799Y26291D01*
G01X8799Y26302D01*
G01X8799Y26312D01*
G01X8799Y26321D01*
G01X8800Y26328D01*
G01X8803Y26496D01*
G01X7630Y26496D01*
G01X6455Y26496D01*
G01X6455Y25513D01*
G37*
G36*
G01X6455Y24355D02*
G01X6455Y24355D01*
G01X6455Y24228D01*
G01X7010Y24228D01*
G01X7565Y24228D01*
G01X7565Y24355D01*
G01X7565Y24482D01*
G01X7010Y24482D01*
G01X6455Y24482D01*
G01X6455Y24355D01*
G37*
G36*
G01X7681Y24355D02*
G01X7681Y24355D01*
G01X7681Y24228D01*
G01X8236Y24228D01*
G01X8793Y24228D01*
G01X8793Y24355D01*
G01X8793Y24482D01*
G01X8236Y24482D01*
G01X7681Y24482D01*
G01X7681Y24355D01*
G37*

M00*
M02*