G04 ---------------------------- Layer name :TOP SOLDER LAYER*
G04 easyEDA 0.1*
G04 Scale: 100 percent, Rotated: No, Reflected: No *
G04 Dimensions in inches *
G04 leading zeros omitted , absolute positions ,2 integer and 4 * 
%FSLAX24Y24*%
%MOIN*%
G90*
G70D02*

%ADD12C,0.082000*%
%ADD14R,0.023700X0.067100*%
%ADD15C,0.068000*%
%ADD17R,0.101300X0.095800*%
%ADD18R,0.051300X0.047400*%

%LPD*%
%LNVIA PAD TRACK COPPERAREA*%
G54D12*
G01X4600Y21800D03*
G01X4600Y22800D03*
G01X4600Y23800D03*
G01X4600Y24800D03*
G01X4600Y25800D03*
G01X4600Y26800D03*
G01X4600Y27800D03*
G01X4600Y28800D03*
G01X4600Y29800D03*
G01X4600Y30800D03*
G01X4600Y31800D03*
G01X4600Y32800D03*
G01X10600Y32800D03*
G01X10600Y31800D03*
G01X10600Y30800D03*
G01X10600Y29800D03*
G01X10600Y28800D03*
G01X10600Y27800D03*
G01X10600Y26800D03*
G01X10600Y25800D03*
G01X10600Y24800D03*
G01X10600Y23800D03*
G01X10600Y22800D03*
G01X10600Y21800D03*
G54D14*
G01X13289Y30169D03*
G01X13550Y30169D03*
G01X13800Y30169D03*
G01X14060Y30169D03*
G01X14319Y30169D03*
G01X14569Y30169D03*
G01X14830Y30169D03*
G01X15080Y30169D03*
G01X15339Y30169D03*
G01X15600Y30169D03*
G01X15850Y30169D03*
G01X16110Y30169D03*
G01X16110Y33030D03*
G01X15850Y33030D03*
G01X15600Y33030D03*
G01X15339Y33030D03*
G01X15080Y33030D03*
G01X14830Y33030D03*
G01X14569Y33030D03*
G01X14319Y33030D03*
G01X14060Y33030D03*
G01X13800Y33030D03*
G01X13550Y33030D03*
G01X13289Y33030D03*
G01X13289Y22769D03*
G01X13550Y22769D03*
G01X13800Y22769D03*
G01X14060Y22769D03*
G01X14319Y22769D03*
G01X14569Y22769D03*
G01X14830Y22769D03*
G01X15080Y22769D03*
G01X15339Y22769D03*
G01X15600Y22769D03*
G01X15850Y22769D03*
G01X16110Y22769D03*
G01X16110Y25630D03*
G01X15850Y25630D03*
G01X15600Y25630D03*
G01X15339Y25630D03*
G01X15080Y25630D03*
G01X14830Y25630D03*
G01X14569Y25630D03*
G01X14319Y25630D03*
G01X14060Y25630D03*
G01X13800Y25630D03*
G01X13550Y25630D03*
G01X13289Y25630D03*
G54D15*
G01X1500Y28000D03*
G01X1500Y27000D03*
G01X1500Y26000D03*
G01X1500Y25000D03*
G01X1500Y33900D03*
G01X1500Y32900D03*
G01X1500Y31900D03*
G01X1500Y30900D03*
G01X1500Y22100D03*
G01X1500Y21100D03*
G01X1500Y20100D03*
G01X1500Y19100D03*
G01X19100Y33900D03*
G01X19100Y32900D03*
G01X19100Y31900D03*
G01X19100Y30900D03*
G01X19100Y22100D03*
G01X19100Y21100D03*
G01X19100Y20100D03*
G01X19100Y19100D03*
G54D17*
G01X6730Y31700D03*
G01X8669Y31700D03*
G54D18*
G01X6969Y29700D03*
G01X7630Y29700D03*
G01X6969Y28200D03*
G01X7630Y28200D03*
G54D17*
G01X6730Y23100D03*
G01X8669Y23100D03*
G54D18*
G01X6969Y26600D03*
G01X7630Y26600D03*
G01X6969Y25100D03*
G01X7630Y25100D03*

M00*
M02*